<svg width="119" height="30" viewBox="0 0 119 30" fill="none" xmlns="http://www.w3.org/2000/svg">
<path d="M17.9041 29V28.2C18.7307 28.1467 19.3441 28.04 19.7441 27.88C20.1441 27.72 20.4107 27.4 20.5441 26.92C20.6774 26.44 20.7441 25.72 20.7441 24.76V4.92C20.7441 3.93333 20.6774 3.21333 20.5441 2.76C20.4107 2.28 20.1307 1.96 19.7041 1.8C19.3041 1.61333 18.7041 1.50667 17.9041 1.48V0.68C18.7307 0.706666 19.7841 0.733332 21.0641 0.759999C22.3707 0.786665 23.6774 0.799998 24.9841 0.799998C26.3441 0.799998 27.6241 0.786665 28.8241 0.759999C30.0241 0.733332 30.9841 0.706666 31.7041 0.68V1.48C30.9041 1.50667 30.2907 1.61333 29.8641 1.8C29.4641 1.96 29.1974 2.28 29.0641 2.76C28.9307 3.21333 28.8641 3.93333 28.8641 4.92V24.76C28.8641 25.72 28.9307 26.44 29.0641 26.92C29.2241 27.4 29.5041 27.72 29.9041 27.88C30.3041 28.04 30.9041 28.1467 31.7041 28.2V29C30.9841 28.9467 30.0241 28.92 28.8241 28.92C27.6241 28.8933 26.3441 28.88 24.9841 28.88C23.6774 28.88 22.3707 28.8933 21.0641 28.92C19.7841 28.92 18.7307 28.9467 17.9041 29ZM0.784063 29V28.2C1.61073 28.1467 2.22406 28.04 2.62406 27.88C3.02406 27.72 3.29073 27.4 3.42406 26.92C3.5574 26.44 3.62406 25.72 3.62406 24.76V4.92C3.62406 3.93333 3.5574 3.21333 3.42406 2.76C3.29073 2.28 3.01073 1.96 2.58406 1.8C2.18406 1.61333 1.58406 1.50667 0.784063 1.48V0.68C1.5574 0.706666 2.57073 0.733332 3.82406 0.759999C5.10406 0.786665 6.46406 0.799998 7.90406 0.799998C9.1574 0.799998 10.3841 0.786665 11.5841 0.759999C12.8107 0.733332 13.8107 0.706666 14.5841 0.68V1.48C13.7841 1.50667 13.1707 1.61333 12.7441 1.8C12.3441 1.96 12.0774 2.28 11.9441 2.76C11.8107 3.21333 11.7441 3.93333 11.7441 4.92V24.76C11.7441 25.72 11.8107 26.44 11.9441 26.92C12.1041 27.4 12.3841 27.72 12.7841 27.88C13.1841 28.04 13.7841 28.1467 14.5841 28.2V29C13.8107 28.9467 12.8107 28.92 11.5841 28.92C10.3841 28.8933 9.1574 28.88 7.90406 28.88C6.46406 28.88 5.10406 28.8933 3.82406 28.92C2.57073 28.92 1.5574 28.9467 0.784063 29ZM8.34406 15.16V14.36H24.1441V15.16H8.34406ZM41.5669 7.68C43.9135 7.68 45.7535 8.37333 47.0869 9.76C48.4469 11.12 49.1269 13.4133 49.1269 16.64H36.6069L36.5269 15.88H43.2869C43.3135 14.5733 43.2602 13.3733 43.1269 12.28C42.9935 11.16 42.7802 10.2667 42.4869 9.6C42.1935 8.93333 41.7935 8.6 41.2869 8.6C40.5669 8.6 39.9802 9.17333 39.5269 10.32C39.0735 11.44 38.7802 13.3733 38.6469 16.12L38.8069 16.44C38.7802 16.7067 38.7669 16.9733 38.7669 17.24C38.7669 17.5067 38.7669 17.7867 38.7669 18.08C38.7669 19.9467 38.9935 21.4 39.4469 22.44C39.9269 23.48 40.5135 24.2 41.2069 24.6C41.9269 25 42.6469 25.2 43.3669 25.2C43.7402 25.2 44.1802 25.1467 44.6869 25.04C45.2202 24.9333 45.7935 24.6933 46.4069 24.32C47.0202 23.92 47.6202 23.32 48.2069 22.52L48.8869 22.76C48.5669 23.8267 48.0469 24.8933 47.3269 25.96C46.6335 27 45.7269 27.8667 44.6069 28.56C43.4869 29.2267 42.1269 29.56 40.5269 29.56C38.8202 29.56 37.2602 29.2133 35.8469 28.52C34.4602 27.8267 33.3535 26.68 32.5269 25.08C31.7002 23.48 31.2869 21.3333 31.2869 18.64C31.2869 16.08 31.7402 14 32.6469 12.4C33.5535 10.7733 34.7802 9.58667 36.3269 8.84C37.9002 8.06667 39.6469 7.68 41.5669 7.68ZM59.6441 7.68C60.8174 7.68 61.8574 7.8 62.7641 8.04C63.6707 8.28 64.3907 8.56 64.9241 8.88C65.6441 9.30667 66.2174 9.88 66.6441 10.6C67.0974 11.2933 67.3241 12.1067 67.3241 13.04C67.3241 14.1333 66.9641 15.0533 66.2441 15.8C65.5241 16.5467 64.6041 16.92 63.4841 16.92C62.3107 16.92 61.4041 16.5867 60.7641 15.92C60.1241 15.2533 59.8041 14.3867 59.8041 13.32C59.8041 12.3067 60.1241 11.4533 60.7641 10.76C61.4307 10.04 62.2041 9.56 63.0841 9.32C62.8974 9.18667 62.6707 9.08 62.4041 9C62.1641 8.89333 61.8574 8.84 61.4841 8.84C60.5241 8.84 59.7374 9.13333 59.1241 9.72C58.5374 10.28 58.0707 11.0267 57.7241 11.96C57.4041 12.8933 57.1774 13.8933 57.0441 14.96C56.9107 16.0267 56.8441 17.0667 56.8441 18.08C56.8441 19.9467 57.0974 21.4 57.6041 22.44C58.1107 23.48 58.7507 24.2 59.5241 24.6C60.2974 25 61.0707 25.2 61.8441 25.2C62.2174 25.2 62.6574 25.1467 63.1641 25.04C63.6974 24.9333 64.2707 24.6933 64.8841 24.32C65.4974 23.92 66.0974 23.32 66.6841 22.52L67.3641 22.76C67.0441 23.8267 66.5241 24.8933 65.8041 25.96C65.1107 27 64.2041 27.8667 63.0841 28.56C61.9641 29.2267 60.6041 29.56 59.0041 29.56C57.2174 29.56 55.5907 29.2133 54.1241 28.52C52.6841 27.8267 51.5241 26.68 50.6441 25.08C49.7907 23.48 49.3641 21.3333 49.3641 18.64C49.3641 16.08 49.8174 14 50.7241 12.4C51.6307 10.7733 52.8574 9.58667 54.4041 8.84C55.9774 8.06667 57.7241 7.68 59.6441 7.68ZM76.3613 1.76V8.24H80.2813V9.04H76.3613V25.64C76.3613 26.1467 76.4546 26.52 76.6413 26.76C76.8279 26.9733 77.1346 27.08 77.5613 27.08C77.8546 27.08 78.2013 27 78.6013 26.84C79.0013 26.6533 79.3746 26.3467 79.7213 25.92L80.3213 26.4C79.7613 27.36 79.0146 28.1333 78.0813 28.72C77.1746 29.28 76.0279 29.56 74.6413 29.56C73.7613 29.56 72.9613 29.44 72.2413 29.2C71.5479 28.9867 70.9746 28.6533 70.5213 28.2C69.9346 27.6133 69.5613 26.8933 69.4013 26.04C69.2413 25.16 69.1613 24.0267 69.1613 22.64V9.04H66.1212V8.24H69.1613V3.52C70.5746 3.52 71.8546 3.38667 73.0013 3.12C74.1746 2.82667 75.2946 2.37333 76.3613 1.76ZM89.5513 7.68C91.6313 7.68 93.4313 8.04 94.9513 8.76C96.4979 9.45333 97.6979 10.6 98.5513 12.2C99.4046 13.8 99.8313 15.9467 99.8313 18.64C99.8313 21.3333 99.4046 23.48 98.5513 25.08C97.6979 26.68 96.4979 27.8267 94.9513 28.52C93.4313 29.2133 91.6313 29.56 89.5513 29.56C87.4979 29.56 85.6979 29.2133 84.1513 28.52C82.6046 27.8267 81.4046 26.68 80.5513 25.08C79.6979 23.48 79.2713 21.3333 79.2713 18.64C79.2713 15.9467 79.6979 13.8 80.5513 12.2C81.4046 10.6 82.6046 9.45333 84.1513 8.76C85.6979 8.04 87.4979 7.68 89.5513 7.68ZM89.5513 8.48C88.7513 8.48 88.0846 9.28 87.5513 10.88C87.0179 12.48 86.7513 15.0667 86.7513 18.64C86.7513 22.2133 87.0179 24.8 87.5513 26.4C88.0846 27.9733 88.7513 28.76 89.5513 28.76C90.3513 28.76 91.0179 27.9733 91.5513 26.4C92.0846 24.8 92.3513 22.2133 92.3513 18.64C92.3513 15.0667 92.0846 12.48 91.5513 10.88C91.0179 9.28 90.3513 8.48 89.5513 8.48ZM114.518 7.68C115.478 7.68 116.225 7.89333 116.758 8.32C117.291 8.72 117.665 9.24 117.878 9.88C118.091 10.4933 118.198 11.1067 118.198 11.72C118.198 12.92 117.851 13.88 117.158 14.6C116.491 15.2933 115.611 15.64 114.518 15.64C113.345 15.64 112.451 15.3733 111.838 14.84C111.251 14.3067 110.958 13.6133 110.958 12.76C110.958 11.8533 111.145 11.1067 111.518 10.52C111.918 9.93333 112.411 9.44 112.998 9.04C112.518 9.04 112.091 9.13333 111.718 9.32C111.398 9.45333 111.091 9.64 110.798 9.88C110.505 10.12 110.251 10.4 110.038 10.72C109.825 11.0133 109.651 11.3467 109.518 11.72C109.411 12.0933 109.358 12.48 109.358 12.88V24.88C109.358 26.16 109.625 27.0267 110.158 27.48C110.691 27.9333 111.571 28.16 112.798 28.16V29C112.185 28.9733 111.265 28.9467 110.038 28.92C108.838 28.8667 107.598 28.84 106.318 28.84C105.118 28.84 103.905 28.8667 102.678 28.92C101.451 28.9467 100.531 28.9733 99.9181 29V28.16C100.745 28.16 101.318 27.96 101.638 27.56C101.985 27.16 102.158 26.4 102.158 25.28V12.6C102.158 11.4 101.998 10.52 101.678 9.96C101.358 9.37333 100.771 9.08 99.9181 9.08V8.24C100.771 8.32 101.598 8.36 102.398 8.36C103.731 8.36 104.971 8.32 106.118 8.24C107.291 8.13333 108.371 7.98667 109.358 7.8V10.68C109.705 9.98667 110.131 9.42667 110.638 9C111.145 8.54667 111.718 8.21333 112.358 8C113.025 7.78666 113.745 7.68 114.518 7.68Z" fill="#2274A5"/>
</svg>
