<svg width="133" height="80" viewBox="0 0 133 80" fill="none" xmlns="http://www.w3.org/2000/svg">
<path d="M3.25 31.9H12V53.95C11.6333 54.05 11.0667 54.15 10.3 54.25C9.53333 54.35 8.75 54.4 7.95 54.4C6.21667 54.4 5 54.1 4.3 53.5C3.6 52.8667 3.25 51.7833 3.25 50.25V31.9ZM12 43.45H3.25V23.6C3.65 23.5333 4.23333 23.45 5 23.35C5.8 23.2167 6.56667 23.15 7.3 23.15C8.96667 23.15 10.1667 23.4333 10.9 24C11.6333 24.5667 12 25.6667 12 27.3V43.45ZM21.6 31.9H30.35V53.95C29.9833 54.05 29.4167 54.15 28.65 54.25C27.8833 54.35 27.1 54.4 26.3 54.4C24.5667 54.4 23.35 54.1 22.65 53.5C21.95 52.8667 21.6 51.7833 21.6 50.25V31.9ZM30.35 43.45H21.6V23.6C22 23.5333 22.5833 23.45 23.35 23.35C24.15 23.2167 24.9167 23.15 25.65 23.15C27.3167 23.15 28.5167 23.45 29.25 24.05C29.9833 24.65 30.35 25.7667 30.35 27.4V43.45ZM26.65 42.3H7V35.4H26.65V42.3ZM35.7938 45.65L35.4938 40.05L47.0438 38.15C46.9771 37.4833 46.6438 36.8167 46.0438 36.15C45.4438 35.4833 44.5104 35.15 43.2438 35.15C41.9104 35.15 40.7938 35.5833 39.8938 36.45C39.0271 37.3167 38.5604 38.55 38.4938 40.15L38.7938 44.35C39.1271 45.8833 39.8771 46.95 41.0438 47.55C42.2438 48.15 43.5771 48.45 45.0438 48.45C46.4438 48.45 47.7771 48.2667 49.0438 47.9C50.3104 47.5333 51.3271 47.1333 52.0938 46.7C52.6271 47.0333 53.0771 47.5 53.4438 48.1C53.8104 48.7 53.9938 49.3333 53.9938 50C53.9938 51.1 53.5771 52.0167 52.7438 52.75C51.9438 53.45 50.8271 53.9667 49.3938 54.3C47.9604 54.6333 46.3104 54.8 44.4438 54.8C41.8438 54.8 39.4938 54.3167 37.3938 53.35C35.3271 52.35 33.6771 50.8667 32.4438 48.9C31.2438 46.9333 30.6438 44.4667 30.6438 41.5C30.6438 39.3 30.9938 37.4 31.6938 35.8C32.4271 34.2 33.3938 32.9 34.5938 31.9C35.7938 30.9 37.1271 30.1667 38.5938 29.7C40.0938 29.2 41.6271 28.95 43.1938 28.95C45.5604 28.95 47.6271 29.4167 49.3938 30.35C51.1604 31.25 52.5438 32.5 53.5438 34.1C54.5438 35.6667 55.0438 37.4833 55.0438 39.55C55.0438 40.6833 54.7271 41.55 54.0938 42.15C53.4604 42.75 52.5771 43.1333 51.4438 43.3L35.7938 45.65ZM68.3352 35.65C66.6685 35.65 65.2185 36.1833 63.9852 37.25C62.7852 38.3167 62.1852 39.8833 62.1852 41.95C62.1852 44.0167 62.7685 45.55 63.9352 46.55C65.1018 47.55 66.5518 48.05 68.2852 48.05C69.2852 48.05 70.1685 47.9333 70.9352 47.7C71.7352 47.4333 72.4018 47.1667 72.9352 46.9C73.5685 47.3667 74.0352 47.8667 74.3352 48.4C74.6685 48.9333 74.8352 49.5833 74.8352 50.35C74.8352 51.6833 74.1685 52.75 72.8352 53.55C71.5352 54.35 69.6685 54.75 67.2352 54.75C64.4685 54.75 62.0518 54.2667 59.9852 53.3C57.9518 52.3333 56.3685 50.9 55.2352 49C54.1352 47.0667 53.5852 44.7167 53.5852 41.95C53.5852 39.0167 54.2018 36.6 55.4352 34.7C56.6685 32.7667 58.3018 31.3333 60.3352 30.4C62.3685 29.4333 64.5852 28.95 66.9852 28.95C69.3518 28.95 71.1852 29.3833 72.4852 30.25C73.8185 31.1167 74.4852 32.2333 74.4852 33.6C74.4852 34.2333 74.3352 34.8333 74.0352 35.4C73.7352 35.9333 73.3852 36.4 72.9852 36.8C72.4185 36.5333 71.7352 36.2833 70.9352 36.05C70.1352 35.7833 69.2685 35.65 68.3352 35.65ZM74.698 40.8H83.098V45.65C83.098 46.4833 83.3647 47.1 83.898 47.5C84.4647 47.8667 85.248 48.05 86.248 48.05C86.748 48.05 87.2647 48.0167 87.798 47.95C88.3314 47.85 88.798 47.7333 89.198 47.6C89.498 47.9333 89.748 48.3333 89.948 48.8C90.1814 49.2667 90.298 49.8167 90.298 50.45C90.298 51.6833 89.8147 52.7167 88.848 53.55C87.9147 54.35 86.248 54.75 83.848 54.75C80.9147 54.75 78.648 54.0833 77.048 52.75C75.4814 51.4167 74.698 49.25 74.698 46.25V40.8ZM80.198 36.75V30.25H89.648C89.848 30.5833 90.0314 31.0333 90.198 31.6C90.398 32.1667 90.498 32.7833 90.498 33.45C90.498 34.6167 90.2314 35.4667 89.698 36C89.198 36.5 88.5147 36.75 87.648 36.75H80.198ZM83.098 42H74.698V24.05C75.0647 23.95 75.5814 23.85 76.248 23.75C76.948 23.6167 77.6814 23.55 78.448 23.55C80.0814 23.55 81.2647 23.8333 81.998 24.4C82.7314 24.9667 83.098 26.0167 83.098 27.55V42ZM114.926 41.85C114.926 44.5167 114.376 46.8167 113.276 48.75C112.209 50.6833 110.692 52.1833 108.726 53.25C106.792 54.2833 104.492 54.8 101.826 54.8C99.1924 54.8 96.8924 54.2833 94.9258 53.25C92.9591 52.2167 91.4258 50.7333 90.3258 48.8C89.2591 46.8667 88.7258 44.55 88.7258 41.85C88.7258 39.2167 89.2758 36.9333 90.3758 35C91.4758 33.0667 93.0091 31.5833 94.9758 30.55C96.9424 29.4833 99.2258 28.95 101.826 28.95C104.459 28.95 106.742 29.4833 108.676 30.55C110.642 31.6167 112.176 33.1167 113.276 35.05C114.376 36.9833 114.926 39.25 114.926 41.85ZM101.826 35.6C100.459 35.6 99.3758 36.15 98.5758 37.25C97.8091 38.3167 97.4258 39.85 97.4258 41.85C97.4258 43.9167 97.8091 45.4833 98.5758 46.55C99.3424 47.6167 100.426 48.15 101.826 48.15C103.226 48.15 104.309 47.6167 105.076 46.55C105.842 45.45 106.226 43.8833 106.226 41.85C106.226 39.8833 105.826 38.35 105.026 37.25C104.259 36.15 103.192 35.6 101.826 35.6ZM123.073 36.85V42.55H114.573V35.55C114.573 34.5833 114.823 33.75 115.323 33.05C115.856 32.3167 116.539 31.6833 117.373 31.15C118.539 30.45 119.906 29.9167 121.473 29.55C123.039 29.1833 124.656 29 126.323 29C129.956 29 131.773 30.2833 131.773 32.85C131.773 33.45 131.689 34.0167 131.523 34.55C131.356 35.05 131.156 35.4833 130.923 35.85C130.589 35.7833 130.189 35.7333 129.723 35.7C129.256 35.6667 128.739 35.65 128.173 35.65C127.339 35.65 126.456 35.75 125.523 35.95C124.589 36.15 123.773 36.45 123.073 36.85ZM114.573 40.8H123.073V53.95C122.706 54.05 122.173 54.15 121.473 54.25C120.806 54.35 120.073 54.4 119.273 54.4C117.639 54.4 116.439 54.1167 115.673 53.55C114.939 52.9833 114.573 51.9333 114.573 50.4V40.8Z" fill="#F5DEB3"/>
<path d="M102.487 37.5668C102.487 37.6634 102.567 37.7518 102.567 37.8484" stroke="#C9643B" stroke-width="3" stroke-linecap="square"/>
<path d="M99.3494 36.9232C99.2784 36.8434 99.0014 37.4521 98.9673 37.5422C98.9348 37.6281 98.9091 37.7179 98.8868 37.8071C98.8731 37.862 98.8328 37.9124 98.8265 37.9691C98.8245 37.9874 98.8064 38.0389 98.8064 38.0205C98.8064 37.9772 98.8614 37.936 98.8868 37.9076C99.0094 37.7714 99.1442 37.6489 99.2936 37.5422C99.4947 37.3986 99.6707 37.195 99.8925 37.0841C100.135 36.9631 100.391 36.8885 100.641 36.7869C100.875 36.6918 101.096 36.6618 101.345 36.6618C101.663 36.6618 102.001 36.6205 102.306 36.7221C102.462 36.7739 102.613 36.8529 102.748 36.9433" stroke="#F5DEB3" stroke-width="3" stroke-linecap="square"/>
<path d="M104.579 37.2048C104.579 37.4008 104.562 37.6041 104.6 37.797C104.677 38.1898 104.835 38.5919 105.03 38.9423C105.26 39.3555 105.364 39.7671 105.272 40.2418C105.177 40.7255 105.046 41.2132 104.89 41.6799C104.862 41.7665 104.796 41.8802 104.781 41.9648C104.759 42.0848 104.795 42.2221 104.799 42.3425C104.805 42.5235 104.8 42.7055 104.8 42.8866C104.8 43.393 104.822 43.9023 104.644 44.385C104.554 44.6279 104.491 44.875 104.378 45.1091C104.288 45.2927 104.194 45.4712 104.1 45.6521C103.959 45.925 103.74 46.1457 103.598 46.4164C103.509 46.5845 103.407 46.7086 103.236 46.8187C102.785 47.1081 102.199 46.6302 101.753 46.9796C101.715 47.0088 101.408 47.3852 101.381 47.3516C101.355 47.3197 101.277 47.2901 101.239 47.269C101.126 47.2052 101.023 47.115 100.908 47.05C100.829 47.0052 100.704 46.9212 100.648 46.8488C100.629 46.8252 100.623 46.7969 100.615 46.7695C100.609 46.7468 100.462 46.7453 100.439 46.7371C100.156 46.6371 99.9645 46.4296 99.7819 46.2063C99.5558 45.9301 99.5135 45.5873 99.3897 45.2599C99.241 44.867 99.0612 44.4647 99.0086 44.0442C98.9946 43.9323 99.0086 43.8107 99.0075 43.699C99.0043 43.3582 98.9202 43.0112 98.8466 42.6799C98.774 42.3532 98.6598 42.0298 98.565 41.71C98.4639 41.3685 98.4092 40.9802 98.4041 40.624C98.3992 40.2755 98.3443 39.8125 98.6455 39.5625C98.8269 39.4118 99.0438 39.343 99.2589 39.2552C99.599 39.1164 99.9228 38.9467 100.274 38.8339C100.615 38.7241 101.017 38.5926 101.381 38.5926C101.557 38.5926 101.747 38.5708 101.913 38.6451C102.032 38.6986 102.117 38.8425 102.185 38.9457C102.299 39.1167 102.389 39.2969 102.488 39.4764C102.627 39.7273 102.835 39.9278 102.97 40.1826C103.062 40.3568 103.134 40.549 103.2 40.7346C103.359 41.1817 103.48 41.624 103.392 42.1078C103.342 42.3822 103.219 42.6451 103.151 42.9168C103.086 43.1749 103.046 43.4307 102.95 43.6811C102.9 43.8094 102.871 43.9629 102.804 44.0833C102.753 44.1758 102.616 44.2098 102.523 44.2442C102.357 44.3056 102.158 44.3004 101.984 44.3202C101.828 44.338 101.611 44.3535 101.461 44.3046C101.106 44.1884 100.938 43.7515 100.862 43.4196C100.73 42.8434 100.713 42.2508 100.576 41.6743C100.494 41.3257 100.361 40.9871 100.295 40.6351C100.248 40.3889 100.255 40.138 100.255 39.8887C100.255 39.7559 100.251 39.6892 100.4 39.6988C100.557 39.7088 100.723 39.8726 100.844 39.958C101.066 40.1137 101.271 40.2829 101.477 40.4586C101.819 40.7508 102.226 41.1312 102.226 41.6095" stroke="#F5DEB3" stroke-width="3" stroke-linecap="round"/>
<path d="M47.4339 51.623C49.778 51.623 51.5327 51.0758 53.5225 50.0225C54.323 49.5986 54.8162 48.7763 55.5272 48.2074C55.9035 47.9064 56.3155 47.5401 56.707 47.3164C57.1066 47.0881 57.3451 46.4446 57.6805 46.2769" stroke="#F5DEB3" stroke-width="5" stroke-linecap="round"/>
<path d="M51.7415 49.9004C51.5931 49.7334 52.2206 49.0774 52.4097 48.9723C52.756 48.7799 52.9269 48.4876 53.194 48.2205C53.4763 47.9382 53.7421 47.7005 54.1221 47.5105C54.2905 47.4263 54.4296 47.2952 54.6 47.2066C54.8969 47.0522 55.2054 46.8801 55.4771 46.6845C55.6864 46.5338 55.9383 46.3983 56.1267 46.2251C56.2433 46.118 56.3936 45.9831 56.5444 45.9328" stroke="#F5DEB3" stroke-width="3" stroke-linecap="round"/>
<path d="M50.5721 49.608C50.5878 49.4827 51.11 49.4055 51.1986 49.2948C51.2862 49.1853 51.4821 49.1145 51.5652 48.9816C51.645 48.8539 51.8776 48.7235 52.0107 48.6474C52.2189 48.5284 52.4161 48.2635 52.6278 48.1788C52.8605 48.0857 53.0496 47.8697 53.2659 47.7495C53.5513 47.591 53.7884 47.3398 54.0803 47.1857C54.4701 46.98 54.8732 46.727 55.187 46.4131C55.3024 46.2978 55.5511 46.1107 55.7091 46.0581" stroke="#F5DEB3" stroke-width="2" stroke-linecap="round"/>
<path d="M51.6998 48.9398C51.6998 48.7168 51.8107 48.5529 52.0107 48.4386C52.1208 48.3757 52.3768 48.3023 52.4515 48.2089C52.5353 48.1041 52.7505 48.0684 52.8599 47.9699C52.9858 47.8566 53.1174 47.7541 53.2357 47.6358C53.3467 47.5248 53.4821 47.3696 53.5791 47.2484C53.6791 47.1234 53.8701 47.0621 53.955 46.956C54.0699 46.8124 54.3648 46.8996 54.4886 46.8006C54.6258 46.6908 54.8884 46.7862 55.0409 46.6845" stroke="#F5DEB3" stroke-width="2" stroke-linecap="round"/>
<path d="M55.2079 46.0581C54.8573 46.0581 54.8223 46.235 54.6139 46.4665C54.4758 46.6199 54.181 46.802 54.1244 47.0001C54.0414 47.2906 53.7682 47.4354 53.5582 47.6034C53.3839 47.7428 52.9039 48.179 53.0037 47.9792C53.2324 47.5218 53.8215 47.3277 54.0803 46.8748C54.2114 46.6454 54.5385 46.5399 54.7068 46.3296C54.8729 46.1218 55.0957 45.8427 55.3332 45.724" stroke="#F5DEB3" stroke-width="2" stroke-linecap="round"/>
<path d="M52.2845 47.9792C52.2845 47.8481 52.53 47.6589 52.6278 47.5709C52.8239 47.3944 53.0935 47.2104 53.3285 47.0929C53.5786 46.9679 53.7818 46.7269 54.0385 46.5917C54.3257 46.4406 54.5733 46.1165 54.8738 46.0163" stroke="#F5DEB3" stroke-width="2" stroke-linecap="round"/>
<path d="M72.698 48.2123C72.7026 48.1749 73.0017 48.0948 73.0478 48.0724C73.1591 48.0184 73.2749 47.9585 73.386 47.9091C73.5145 47.852 73.6836 47.7189 73.789 47.6241C73.9887 47.4443 74.2724 47.2596 74.5055 47.1278C74.7166 47.0085 74.8892 46.8252 75.1003 46.7197" stroke="#F5DEB3" stroke-width="2" stroke-linecap="round"/>
<path d="M72.3481 49.052C72.5696 49.052 72.8201 49.0873 73.0362 49.0403C73.3221 48.9782 73.5347 48.8837 73.7942 48.754C74.1725 48.5648 74.5445 48.3733 74.9137 48.1657C75.0533 48.0872 75.1909 47.9947 75.3335 47.9234C75.3868 47.8967 75.4848 47.8392 75.5434 47.8392" stroke="#F5DEB3" stroke-width="2" stroke-linecap="round"/>
<path d="M75.5434 47.8392C75.5285 47.9588 75.3432 48.1364 75.2648 48.2344C75.1826 48.3372 75.0896 48.4542 74.9837 48.5337C74.6749 48.7652 74.3649 49.0254 74.0274 49.2153C73.7154 49.3907 73.4234 49.6488 73.1411 49.8683C72.9701 50.0013 72.775 50.1446 72.5813 50.2415" stroke="#F5DEB3" stroke-width="2" stroke-linecap="round"/>
<path d="M70.8321 52.7604C70.9469 52.7508 71.0792 52.69 71.1819 52.6386C71.2204 52.6194 71.3058 52.5784 71.3452 52.5738C71.4058 52.5667 71.4957 52.5035 71.5551 52.4753C71.6448 52.4329 71.7524 52.4178 71.8454 52.3756C72.133 52.2448 72.3974 52.0713 72.698 51.9544C73.0094 51.8333 73.3281 51.7289 73.6426 51.6059C73.9896 51.4701 74.263 51.2289 74.5872 51.0578C74.9314 50.8761 75.2595 50.6089 75.5551 50.3581C75.7401 50.2011 75.9328 50.0646 76.1045 49.8929C76.18 49.8174 76.313 49.6584 76.4064 49.6117" stroke="#F5DEB3" stroke-width="2" stroke-linecap="round"/>
<path d="M76.4064 49.6117C76.4064 49.6991 76.3939 49.7828 76.4478 49.8502C76.5009 49.9165 76.5474 50.0206 76.4647 50.0665C76.2859 50.1659 76.1168 50.2302 75.9866 50.3931C75.7312 50.7122 75.4511 50.9666 75.0769 51.1329C74.9836 51.1744 74.901 51.2583 74.8152 51.3143C74.6602 51.4157 74.4802 51.4711 74.3189 51.5579C74.176 51.6349 74.0004 51.6897 73.846 51.7393C73.6512 51.802 73.4572 51.9039 73.2564 51.9441C73.0469 51.986 72.8373 52.0481 72.628 52.0957C72.4187 52.1432 72.1955 52.1853 71.9983 52.2706C71.7696 52.3695 71.5043 52.4005 71.2649 52.4676C71.0693 52.5223 70.8023 52.5505 70.5989 52.5505" stroke="#F5DEB3" stroke-width="2" stroke-linecap="round"/>
<path d="M71.9749 52.3406C72.1138 52.3406 72.2955 52.2894 72.3999 52.2058C72.4784 52.143 72.6351 52.1043 72.698 52.0257C72.8814 51.7964 73.2743 51.6676 73.351 51.361" stroke="#F5DEB3" stroke-width="2" stroke-linecap="round"/>
<path d="M72.7679 48.7255C72.7714 48.698 72.9119 48.5759 72.9429 48.5622C73.0053 48.5345 73.0376 48.4738 73.0945 48.4404C73.2007 48.3779 73.2659 48.2431 73.3627 48.1657C73.4413 48.1028 73.5114 47.9854 73.5609 47.8988C73.6099 47.813 73.7843 47.6181 73.8875 47.6059C74.007 47.5919 74.1369 47.4499 74.2373 47.3908C74.4039 47.2929 74.5406 47.1628 74.7038 47.0578C75.0105 46.8607 75.3369 46.6993 75.6484 46.5097C75.8492 46.3875 76.0402 46.2589 76.2276 46.1184C76.309 46.0574 76.3903 45.9464 76.4763 45.9033" stroke="#F5DEB3" stroke-width="2" stroke-linecap="round"/>
<path d="M75.7067 45.9267C75.6459 45.9343 75.571 46.1467 75.5071 46.1832C75.4246 46.2304 75.3345 46.3549 75.292 46.4398C75.2603 46.5032 75.2041 46.5811 75.1586 46.6367C75.1049 46.7023 74.9922 46.7761 74.9603 46.8479C74.9342 46.9067 74.8448 47.013 74.7867 47.0462C74.7307 47.0781 74.712 47.1753 74.6675 47.2198C74.5658 47.3215 74.4283 47.4596 74.3073 47.5308C74.2162 47.5843 74.1523 47.7059 74.0624 47.7459C73.9352 47.8024 73.8299 47.9327 73.7009 47.9972C73.5795 48.0579 73.4924 48.2196 73.3743 48.259" stroke="#F5DEB3" stroke-width="2" stroke-linecap="round"/>
<path d="M73.1644 48.1657C73.1777 48.0599 73.3225 48.0128 73.3743 47.9221C73.4035 47.8711 73.4755 47.814 73.5195 47.7744C73.7731 47.5461 74.1053 47.4166 74.3591 47.1809C74.5926 46.9641 74.8613 46.8376 75.0536 46.5745C75.1493 46.4436 75.3125 46.3382 75.4385 46.2402C75.5272 46.1712 75.7037 46.0259 75.7533 45.9267" stroke="#F5DEB3" stroke-width="2" stroke-linecap="round"/>
<path d="M70.5797 53.1786C71.1305 53.1786 71.4458 52.5385 71.9304 52.4C72.4137 52.262 72.8486 51.8433 73.3285 51.63C73.9137 51.3699 74.4226 50.926 74.9933 50.6406C75.2295 50.5225 75.5475 50.2363 75.8063 50.2363C75.8514 50.2363 76.0663 50.1268 76.0171 50.176C75.9497 50.2434 75.8651 50.3789 75.7676 50.3911C75.5998 50.4121 75.4506 50.7087 75.303 50.7955C75.1359 50.8938 74.8011 51.1347 74.6835 51.2816C74.3952 51.642 73.5744 51.6227 73.2898 51.9785C72.9845 52.36 72.2856 52.4334 71.9132 52.7313C71.4942 53.0664 70.7562 53.4109 70.1925 53.4109" stroke="#F5DEB3" stroke-width="2" stroke-linecap="round"/>
<path d="M97.5428 42.0551C95.7925 46.0183 98.5743 48 101.627 48C104.68 48 108.628 47.0092 106.294 42.0551C103.961 37.1009 102.434 36.8061 101.627 36.1101C100.82 35.4141 99.2932 38.0918 97.5428 42.0551Z" fill="#AF4D2E"/>
</svg>
