<svg width="532" height="132" viewBox="0 0 532 132" fill="none" xmlns="http://www.w3.org/2000/svg">
<path d="M78.0409 129V125.38C81.7816 125.139 84.5569 124.656 86.3669 123.932C88.1769 123.208 89.3836 121.76 89.9869 119.588C90.5902 117.416 90.8919 114.158 90.8919 109.814V20.038C90.8919 15.5733 90.5902 12.3153 89.9869 10.264C89.3836 8.092 88.1166 6.644 86.1859 5.92C84.3759 5.07533 81.6609 4.59266 78.0409 4.472V0.851999C81.7816 0.972664 86.5479 1.09333 92.3399 1.21399C98.2526 1.33466 104.165 1.39499 110.078 1.39499C116.232 1.39499 122.024 1.33466 127.454 1.21399C132.884 1.09333 137.228 0.972664 140.486 0.851999V4.472C136.866 4.59266 134.091 5.07533 132.16 5.92C130.35 6.644 129.143 8.092 128.54 10.264C127.937 12.3153 127.635 15.5733 127.635 20.038V109.814C127.635 114.158 127.937 117.416 128.54 119.588C129.264 121.76 130.531 123.208 132.341 123.932C134.151 124.656 136.866 125.139 140.486 125.38V129C137.228 128.759 132.884 128.638 127.454 128.638C122.024 128.517 116.232 128.457 110.078 128.457C104.165 128.457 98.2526 128.517 92.3399 128.638C86.5479 128.638 81.7816 128.759 78.0409 129ZM0.572883 129V125.38C4.31355 125.139 7.08888 124.656 8.89888 123.932C10.7089 123.208 11.9155 121.76 12.5189 119.588C13.1222 117.416 13.4239 114.158 13.4239 109.814V20.038C13.4239 15.5733 13.1222 12.3153 12.5189 10.264C11.9155 8.092 10.6486 6.644 8.71788 5.92C6.90788 5.07533 4.19288 4.59266 0.572883 4.472V0.851999C4.07222 0.972664 8.65755 1.09333 14.3289 1.21399C20.1209 1.33466 26.2749 1.39499 32.7909 1.39499C38.4622 1.39499 44.0129 1.33466 49.4429 1.21399C54.9936 1.09333 59.5186 0.972664 63.0179 0.851999V4.472C59.3979 4.59266 56.6226 5.07533 54.6919 5.92C52.8819 6.644 51.6752 8.092 51.0719 10.264C50.4686 12.3153 50.1669 15.5733 50.1669 20.038V109.814C50.1669 114.158 50.4686 117.416 51.0719 119.588C51.7959 121.76 53.0629 123.208 54.8729 123.932C56.6829 124.656 59.3979 125.139 63.0179 125.38V129C59.5186 128.759 54.9936 128.638 49.4429 128.638C44.0129 128.517 38.4622 128.457 32.7909 128.457C26.2749 128.457 20.1209 128.517 14.3289 128.638C8.65755 128.638 4.07222 128.759 0.572883 129ZM34.7819 66.374V62.754H106.277V66.374H34.7819ZM185.115 32.527C195.734 32.527 204.06 35.6643 210.093 41.939C216.247 48.093 219.324 58.4703 219.324 73.071H162.671L162.309 69.632H192.898C193.019 63.7193 192.777 58.2893 192.174 53.342C191.571 48.274 190.605 44.2317 189.278 41.215C187.951 38.1983 186.141 36.69 183.848 36.69C180.59 36.69 177.935 39.2843 175.884 44.473C173.833 49.541 172.505 58.2893 171.902 70.718L172.626 72.166C172.505 73.3727 172.445 74.5793 172.445 75.786C172.445 76.9927 172.445 78.2597 172.445 79.587C172.445 88.0337 173.471 94.61 175.522 99.316C177.694 104.022 180.349 107.28 183.486 109.09C186.744 110.9 190.002 111.805 193.26 111.805C194.949 111.805 196.94 111.564 199.233 111.081C201.646 110.598 204.241 109.512 207.016 107.823C209.791 106.013 212.506 103.298 215.161 99.678L218.238 100.764C216.79 105.591 214.437 110.417 211.179 115.244C208.042 119.95 203.939 123.872 198.871 127.009C193.803 130.026 187.649 131.534 180.409 131.534C172.686 131.534 165.627 129.965 159.232 126.828C152.957 123.691 147.95 118.502 144.209 111.262C140.468 104.022 138.598 94.3083 138.598 82.121C138.598 70.537 140.649 61.125 144.752 53.885C148.855 46.5243 154.405 41.1547 161.404 37.776C168.523 34.2767 176.427 32.527 185.115 32.527ZM266.914 32.527C272.224 32.527 276.93 33.07 281.032 34.156C285.135 35.242 288.393 36.509 290.806 37.957C294.064 39.8877 296.659 42.482 298.589 45.74C300.641 48.8773 301.666 52.5577 301.666 56.781C301.666 61.7283 300.037 65.8913 296.779 69.27C293.521 72.6487 289.358 74.338 284.29 74.338C278.981 74.338 274.878 72.8297 271.982 69.813C269.086 66.7963 267.638 62.8747 267.638 58.048C267.638 53.4627 269.086 49.6013 271.982 46.464C274.999 43.206 278.498 41.034 282.48 39.948C281.636 39.3447 280.61 38.862 279.403 38.5C278.317 38.0173 276.93 37.776 275.24 37.776C270.896 37.776 267.337 39.1033 264.561 41.758C261.907 44.292 259.795 47.6707 258.226 51.894C256.778 56.1173 255.753 60.6423 255.149 65.469C254.546 70.2957 254.244 75.0017 254.244 79.587C254.244 88.0337 255.391 94.61 257.683 99.316C259.976 104.022 262.872 107.28 266.371 109.09C269.871 110.9 273.37 111.805 276.869 111.805C278.559 111.805 280.55 111.564 282.842 111.081C285.256 110.598 287.85 109.512 290.625 107.823C293.401 106.013 296.116 103.298 298.77 99.678L301.847 100.764C300.399 105.591 298.046 110.417 294.788 115.244C291.651 119.95 287.548 123.872 282.48 127.009C277.412 130.026 271.258 131.534 264.018 131.534C255.934 131.534 248.573 129.965 241.936 126.828C235.42 123.691 230.171 118.502 226.189 111.262C222.328 104.022 220.397 94.3083 220.397 82.121C220.397 70.537 222.449 61.125 226.551 53.885C230.654 46.5243 236.205 41.1547 243.203 37.776C250.323 34.2767 258.226 32.527 266.914 32.527ZM342.56 5.73899V35.061H360.298V38.681H342.56V113.796C342.56 116.089 342.982 117.778 343.827 118.864C344.671 119.829 346.059 120.312 347.99 120.312C349.317 120.312 350.886 119.95 352.696 119.226C354.506 118.381 356.195 116.994 357.764 115.063L360.479 117.235C357.945 121.579 354.566 125.078 350.343 127.733C346.24 130.267 341.051 131.534 334.777 131.534C330.795 131.534 327.175 130.991 323.917 129.905C320.779 128.94 318.185 127.431 316.134 125.38C313.479 122.725 311.79 119.467 311.066 115.606C310.342 111.624 309.98 106.496 309.98 100.221V38.681H296.224V35.061H309.98V13.703C316.375 13.703 322.167 13.0997 327.356 11.893C332.665 10.5657 337.733 8.51432 342.56 5.73899ZM402.244 32.527C411.656 32.527 419.801 34.156 426.679 37.414C433.678 40.5513 439.108 45.74 442.969 52.98C446.831 60.22 448.761 69.9337 448.761 82.121C448.761 94.3083 446.831 104.022 442.969 111.262C439.108 118.502 433.678 123.691 426.679 126.828C419.801 129.965 411.656 131.534 402.244 131.534C392.953 131.534 384.808 129.965 377.809 126.828C370.811 123.691 365.381 118.502 361.519 111.262C357.658 104.022 355.727 94.3083 355.727 82.121C355.727 69.9337 357.658 60.22 361.519 52.98C365.381 45.74 370.811 40.5513 377.809 37.414C384.808 34.156 392.953 32.527 402.244 32.527ZM402.244 36.147C398.624 36.147 395.608 39.767 393.194 47.007C390.781 54.247 389.574 65.9517 389.574 82.121C389.574 98.2903 390.781 109.995 393.194 117.235C395.608 124.354 398.624 127.914 402.244 127.914C405.864 127.914 408.881 124.354 411.294 117.235C413.708 109.995 414.914 98.2903 414.914 82.121C414.914 65.9517 413.708 54.247 411.294 47.007C408.881 39.767 405.864 36.147 402.244 36.147ZM515.22 32.527C519.564 32.527 522.942 33.4923 525.356 35.423C527.769 37.233 529.458 39.586 530.424 42.482C531.389 45.2573 531.872 48.0327 531.872 50.808C531.872 56.238 530.303 60.582 527.166 63.84C524.149 66.9773 520.167 68.546 515.22 68.546C509.91 68.546 505.868 67.3393 503.093 64.926C500.438 62.5127 499.111 59.3753 499.111 55.514C499.111 51.4113 499.955 48.0327 501.645 45.378C503.455 42.7233 505.687 40.491 508.342 38.681C506.17 38.681 504.239 39.1033 502.55 39.948C501.102 40.5513 499.714 41.396 498.387 42.482C497.059 43.568 495.913 44.835 494.948 46.283C493.982 47.6103 493.198 49.1187 492.595 50.808C492.112 52.4973 491.871 54.247 491.871 56.057V110.357C491.871 116.149 493.077 120.071 495.491 122.122C497.904 124.173 501.886 125.199 507.437 125.199V129C504.661 128.879 500.498 128.759 494.948 128.638C489.518 128.397 483.907 128.276 478.115 128.276C472.685 128.276 467.194 128.397 461.644 128.638C456.093 128.759 451.93 128.879 449.155 129V125.199C452.895 125.199 455.49 124.294 456.938 122.484C458.506 120.674 459.291 117.235 459.291 112.167V54.79C459.291 49.36 458.567 45.378 457.119 42.844C455.671 40.1893 453.016 38.862 449.155 38.862V35.061C453.016 35.423 456.757 35.604 460.377 35.604C466.41 35.604 472.021 35.423 477.21 35.061C482.519 34.5783 487.406 33.9147 491.871 33.07V46.102C493.439 42.9647 495.37 40.4307 497.663 38.5C499.955 36.4487 502.55 34.9403 505.446 33.975C508.462 33.0097 511.72 32.527 515.22 32.527Z" fill="#FEF8EE"/>
</svg>
