<svg width="118" height="37" viewBox="0 0 118 37" fill="none" xmlns="http://www.w3.org/2000/svg">
<path d="M5.54297 29.5624C5.54297 26.3397 6.66602 23.4589 8.42383 21.7499H8.375L18.6777 11.4471V36.496L23.2188 31.955V1.04675L18.6777 5.58777V11.0077L8.0332 21.7499L5.49414 24.1913V1.04675L0.953125 5.58777V36.5448L5.54297 31.9061V29.5624ZM34.5957 36.2518C37.3789 36.9843 40.3574 36.0565 42.4082 34.0546L45.3379 31.1249L44.3125 30.1483C43.0918 33.5663 40.5039 35.91 37.5254 35.91C34.5469 35.91 31.959 33.5663 30.7383 30.1483L43.6777 17.16L44.2637 16.5741C43.0918 15.6952 41.8223 15.0604 40.4551 14.7186C37.6719 13.9374 34.6934 14.8651 32.6426 16.9159L26.6855 22.8729C25.8066 26.535 26.7832 30.5389 29.6152 33.371C31.0801 34.787 32.7891 35.7635 34.5957 36.2518ZM37.5254 15.0116C39.4785 15.0116 41.2363 16.037 42.5547 17.6483L30.543 29.7089C30.1523 28.3905 29.9082 26.9745 29.9082 25.4608C29.9082 19.6991 33.3262 15.0116 37.5254 15.0116ZM62.7695 34.0546L65.6992 31.1249L64.6738 30.1483C63.4531 33.5663 60.8652 35.91 57.8867 35.91C53.6875 35.91 50.2695 31.2225 50.2695 25.4608C50.2695 19.6991 53.6875 15.0116 57.8867 15.0116C59.9375 15.0116 61.8418 16.1835 63.209 17.9901L64.625 16.5741C63.4531 15.6952 62.1836 15.0604 60.8164 14.7186C58.0332 13.9374 55.0547 14.8651 53.0039 16.9159L47.0469 22.8729C46.168 26.535 47.1445 30.5389 49.9766 33.371C51.4414 34.787 53.1504 35.7635 54.957 36.2518C57.7402 36.9843 60.7188 36.0565 62.7695 34.0546ZM75.709 14.5721H75.0742L70.6309 19.0155V0.265503L67.2617 3.63464C67.1152 4.26941 67.1152 5.05066 67.0664 5.73425V36.496L70.6309 32.8827V19.6014L75.709 14.5721ZM89.2344 14.7186C86.4512 13.9374 83.4727 14.8651 81.4219 16.9159L75.4648 22.8729C74.5859 26.535 75.5625 30.5389 78.3945 33.371C79.8105 34.787 81.5684 35.7635 83.375 36.2518C86.1582 36.9843 89.1367 36.0565 91.1875 34.0546L97.1445 28.0487C98.0234 24.4354 97.0469 20.4315 94.2148 17.5507C92.75 16.1346 91.041 15.2069 89.2344 14.7186ZM86.3047 35.91C82.1055 35.91 78.6875 31.2225 78.6875 25.4608C78.6875 19.6991 82.1055 15.0116 86.3047 15.0116C90.5039 15.0116 93.9219 19.6991 93.9219 25.4608C93.9219 31.2225 90.5039 35.91 86.3047 35.91ZM103.395 24.2889C103.98 19.3573 107.105 15.5975 110.865 15.5975C113.014 15.5975 114.967 16.8182 116.334 18.7714L117.848 17.3065C116.627 16.33 115.26 15.6464 113.795 15.3046C111.012 14.5233 108.082 15.451 106.031 17.5018L100.025 23.4589C99.8789 24.1425 99.8789 24.9237 99.8789 25.5585V36.496L103.395 32.8827V24.2889Z" fill="#2274A5"/>
</svg>
