<svg width="306" height="50" viewBox="0 0 306 50" fill="none" xmlns="http://www.w3.org/2000/svg">
<path d="M5.54297 30.0664C5.54297 26.8438 6.66602 23.9629 8.42383 22.2539H8.375L18.6777 11.9512V37L23.2188 32.459V1.55078L18.6777 6.0918V11.5117L8.0332 22.2539L5.49414 24.6953V1.55078L0.953125 6.0918V37.0488L5.54297 32.4102V30.0664ZM40.4551 15.2227C37.6719 14.4414 34.6934 15.3691 32.6426 17.4199L26.6855 23.377C25.8066 27.0391 26.7832 31.043 29.6152 33.875C31.0312 35.291 32.7891 36.2676 34.5957 36.7559C37.3789 37.4883 40.3574 36.5605 42.4082 34.5586L48.3652 28.5527C49.2441 24.9395 48.2676 20.9355 45.4355 18.0547C43.9707 16.6387 42.2617 15.7109 40.4551 15.2227ZM37.5254 36.4141C33.3262 36.4141 29.9082 31.7266 29.9082 25.9648C29.9082 20.2031 33.3262 15.5156 37.5254 15.5156C41.7246 15.5156 45.1426 20.2031 45.1426 25.9648C45.1426 31.7266 41.7246 36.4141 37.5254 36.4141ZM83.8633 23.084L77.8574 17.127C76.832 16.0527 75.5137 15.3203 74.0977 14.9297C72.7305 15.3203 71.4121 16.0527 70.3379 17.127L67.5547 19.9102L64.7715 17.127C63.6973 16.1016 62.4277 15.3203 61.0117 14.9785V14.9297V14.9785C59.5957 15.3203 58.3262 16.1016 57.252 17.127L51.2461 23.084C51.0996 23.7676 51.1484 24.5488 51.0996 25.2324V37L54.6152 33.4355V23.9629C55.2012 19.5195 57.7402 16.0039 61.0117 15.3691C64.2344 16.0039 66.8223 19.5195 67.3594 23.9629V37L70.875 33.4355V25.2324C70.8262 24.5488 70.875 23.7676 70.7285 23.084L68.4824 20.8867C69.6055 17.957 71.6562 15.8574 74.0977 15.3691C77.3691 16.0039 79.9082 19.5195 80.4941 23.9629V37L84.0098 33.4355V25.2324C83.9609 24.5488 84.0098 23.7676 83.8633 23.084ZM94.6543 36.7559C97.4375 37.4883 100.416 36.5605 102.467 34.5586L105.396 31.6289L104.371 30.6523C103.15 34.0703 100.562 36.4141 97.584 36.4141C94.6055 36.4141 92.0176 34.0703 90.7969 30.6523L103.736 17.6641L104.322 17.0781C103.15 16.1992 101.881 15.5645 100.514 15.2227C97.7305 14.4414 94.752 15.3691 92.7012 17.4199L86.7441 23.377C85.8652 27.0391 86.8418 31.043 89.6738 33.875C91.1387 35.291 92.8477 36.2676 94.6543 36.7559ZM97.584 15.5156C99.5371 15.5156 101.295 16.541 102.613 18.1523L90.6016 30.2129C90.2109 28.8945 89.9668 27.4785 89.9668 25.9648C89.9668 20.2031 93.3848 15.5156 97.584 15.5156ZM130.689 36.7559C133.473 37.4883 136.451 36.5605 138.453 34.5586L144.459 28.5527C145.338 24.9395 144.361 20.9355 141.48 18.0547C140.064 16.6387 138.355 15.7109 136.5 15.2227C133.717 14.4414 130.738 15.3691 128.688 17.4199L125.953 20.1543V0.720703L122.438 4.13867V25.9648C122.438 28.8457 123.512 31.6777 125.709 33.875C127.125 35.291 128.883 36.2676 130.689 36.7559ZM133.619 15.5156C137.818 15.5156 141.188 20.2031 141.188 25.9648C141.188 31.7266 137.818 36.4141 133.619 36.4141C129.42 36.4141 126.002 31.7266 126.002 25.9648C126.002 20.2031 129.42 15.5156 133.619 15.5156ZM165.895 26.6973C165.895 26.9414 165.846 27.2344 165.846 27.4785C165.846 27.5762 165.846 27.625 165.797 27.6738C165.797 28.0156 165.748 28.3086 165.65 28.6016V28.6504C165.309 30.6523 164.479 32.4102 163.404 33.7285C162.037 35.3887 160.279 36.4141 158.326 36.4141C154.127 36.4141 150.709 31.7266 150.709 25.9648C150.709 23.3281 151.441 20.8867 152.613 19.0312L152.369 18.4941L147.486 23.377C146.607 27.0391 147.584 31.043 150.416 33.875C151.832 35.291 153.59 36.2676 155.396 36.7559C158.18 37.4883 161.158 36.5605 163.209 34.5586L163.502 34.2168L164.186 33.5332C164.186 33.582 164.186 33.582 164.186 33.582L165.895 31.873V39.4902C165.846 39.832 165.846 40.1738 165.797 40.5156C165.211 45.4473 162.086 49.2559 158.326 49.2559C155.104 49.2559 152.369 46.4727 151.246 42.6152C150.611 43.4941 149.977 44.4219 149.293 45.3984C149.635 45.8379 150.025 46.2773 150.416 46.668C151.832 48.084 153.59 49.0605 155.396 49.5488C156.129 49.7441 156.812 49.8418 157.496 49.793C159.645 49.7441 161.695 48.8652 163.209 47.3516L169.166 41.3457C169.41 40.3203 169.459 39.2949 169.459 38.1719V16.1016L165.943 19.5684C165.943 19.5684 165.895 26.5996 165.895 26.6973ZM192.848 30.0664C192.848 26.8438 193.971 23.9629 195.729 22.2539H195.68L205.982 11.9512V37L210.523 32.459V1.55078L205.982 6.0918V11.5117L195.338 22.2539L192.799 24.6953V1.55078L188.258 6.0918V37.0488L192.848 32.4102V30.0664ZM221.9 36.7559C224.684 37.4883 227.662 36.5605 229.713 34.5586L232.643 31.6289L231.617 30.6523C230.396 34.0703 227.809 36.4141 224.83 36.4141C221.852 36.4141 219.264 34.0703 218.043 30.6523L230.982 17.6641L231.568 17.0781C230.396 16.1992 229.127 15.5645 227.76 15.2227C224.977 14.4414 221.998 15.3691 219.947 17.4199L213.99 23.377C213.111 27.0391 214.088 31.043 216.92 33.875C218.385 35.291 220.094 36.2676 221.9 36.7559ZM224.83 15.5156C226.783 15.5156 228.541 16.541 229.859 18.1523L217.848 30.2129C217.457 28.8945 217.213 27.4785 217.213 25.9648C217.213 20.2031 220.631 15.5156 224.83 15.5156ZM250.074 34.5586L253.004 31.6289L251.979 30.6523C250.758 34.0703 248.17 36.4141 245.191 36.4141C240.992 36.4141 237.574 31.7266 237.574 25.9648C237.574 20.2031 240.992 15.5156 245.191 15.5156C247.242 15.5156 249.146 16.6875 250.514 18.4941L251.93 17.0781C250.758 16.1992 249.488 15.5645 248.121 15.2227C245.338 14.4414 242.359 15.3691 240.309 17.4199L234.352 23.377C233.473 27.0391 234.449 31.043 237.281 33.875C238.746 35.291 240.455 36.2676 242.262 36.7559C245.045 37.4883 248.023 36.5605 250.074 34.5586ZM263.014 15.0762H262.379L257.936 19.5195V0.769531L254.566 4.13867C254.42 4.77344 254.42 5.55469 254.371 6.23828V37L257.936 33.3867V20.1055L263.014 15.0762ZM276.539 15.2227C273.756 14.4414 270.777 15.3691 268.727 17.4199L262.77 23.377C261.891 27.0391 262.867 31.043 265.699 33.875C267.115 35.291 268.873 36.2676 270.68 36.7559C273.463 37.4883 276.441 36.5605 278.492 34.5586L284.449 28.5527C285.328 24.9395 284.352 20.9355 281.52 18.0547C280.055 16.6387 278.346 15.7109 276.539 15.2227ZM273.609 36.4141C269.41 36.4141 265.992 31.7266 265.992 25.9648C265.992 20.2031 269.41 15.5156 273.609 15.5156C277.809 15.5156 281.227 20.2031 281.227 25.9648C281.227 31.7266 277.809 36.4141 273.609 36.4141ZM290.699 24.793C291.285 19.8613 294.41 16.1016 298.17 16.1016C300.318 16.1016 302.271 17.3223 303.639 19.2754L305.152 17.8105C303.932 16.834 302.564 16.1504 301.1 15.8086C298.316 15.0273 295.387 15.9551 293.336 18.0059L287.33 23.9629C287.184 24.6465 287.184 25.4277 287.184 26.0625V37L290.699 33.3867V24.793Z" fill="#D2B48C"/>
</svg>
